HIERARCHY
ROOT Hips
{
	OFFSET -0.179506 -22.333345 2.821913
	CHANNELS 6 Xposition Yposition Zposition Zrotation Yrotation Xrotation 
	JOINT LeftUpLeg
	{
		OFFSET 6.951974 -9.140623 -0.681533
		CHANNELS 3 Zrotation Yrotation Xrotation
		JOINT LeftLeg
		{
			OFFSET 3.427654 -37.519855 -0.449580
			CHANNELS 3 Zrotation Yrotation Xrotation
			JOINT LeftFoot
			{
				OFFSET -1.359570 -39.796059 -4.369333
				CHANNELS 3 Zrotation Yrotation Xrotation
				JOINT LeftToe
				{
					OFFSET 2.635814 -5.579078 11.928840
					CHANNELS 3 Zrotation Yrotation Xrotation
					End Site
					{
						OFFSET 0.000000 0.000000 0.000000
					}
				}
			}
		}
	}
	JOINT RightUpLeg
	{
		OFFSET -6.767048 -9.052170 -0.431982
		CHANNELS 3 Zrotation Yrotation Xrotation
		JOINT RightLeg
		{
			OFFSET -3.829005 -38.256897 -0.885003
			CHANNELS 3 Zrotation Yrotation Xrotation
			JOINT RightFoot
			{
				OFFSET 1.577377 -39.841461 -4.231180
				CHANNELS 3 Zrotation Yrotation Xrotation
				JOINT RightToe
				{
					OFFSET -2.537174 -4.814398 12.334795
					CHANNELS 3 Zrotation Yrotation Xrotation
					End Site
					{
						OFFSET 0.000000 0.000000 0.000000
					}
				}
			}
		}
	}
	JOINT Spine
	{
		OFFSET -0.253288 10.896323 -2.669631
		CHANNELS 3 Zrotation Yrotation Xrotation
		JOINT Spine1
		{
			OFFSET 0.548704 13.518043 0.109247
			CHANNELS 3 Zrotation Yrotation Xrotation
			JOINT Spine2
			{
				OFFSET 0.145701 5.292222 2.542457
				CHANNELS 3 Zrotation Yrotation Xrotation
				JOINT Neck
				{
					OFFSET -0.277840 21.387037 -4.285703
					CHANNELS 3 Zrotation Yrotation Xrotation
					JOINT Head
					{
						OFFSET 0.515184 6.496960 5.134897
						CHANNELS 3 Zrotation Yrotation Xrotation
						End Site
						{
							OFFSET 0.000000 0.000000 0.000000
						}
					}
				}
				JOINT LeftShoulder
				{
					OFFSET 7.884473 12.174932 -3.408961
					CHANNELS 3 Zrotation Yrotation Xrotation
					JOINT LeftArm
					{
						OFFSET 9.097692 3.046888 -0.886815
						CHANNELS 3 Zrotation Yrotation Xrotation
						JOINT LeftForeArm
						{
							OFFSET 25.961220 -1.277207 -2.745643
							CHANNELS 3 Zrotation Yrotation Xrotation
							JOINT LeftHand
							{
								OFFSET 24.923361 0.898606 -0.117091
								CHANNELS 3 Zrotation Yrotation Xrotation
								End Site
								{
									OFFSET 0.000000 0.000000 0.000000
								}
							}
						}
					}
				}
				JOINT RightShoulder
				{
					OFFSET -8.175920 11.883285 -3.861528
					CHANNELS 3 Zrotation Yrotation Xrotation
					JOINT RightArm
					{
						OFFSET -9.601238 3.255117 -0.914307
						CHANNELS 3 Zrotation Yrotation Xrotation
						JOINT RightForeArm
						{
							OFFSET -25.374195 -1.332924 -2.140099
							CHANNELS 3 Zrotation Yrotation Xrotation
							JOINT RightHand
							{
								OFFSET -25.529810 0.777228 -0.555919
								CHANNELS 3 Zrotation Yrotation Xrotation
								End Site
								{
									OFFSET 0.000000 0.000000 0.000000
								}
							}
						}
					}
				}
			}
		}
	}
}
MOTION
Frames: 18
Frame Time: 0.033333
-0.250845 -15.478548 89.893723 -115.501211 5.494804 85.420072 22.200354 7.639980 -1.541556 -7.250956 -0.197692 27.042573 -0.019440 9.591387 -28.088614 nan nan nan -18.116080 -11.899002 -10.267584 2.844557 -10.685868 12.195105 6.363170 -5.480260 5.417938 nan nan nan -7.407386 1.203903 1.384361 5.027856 -6.382880 14.228939 -0.191760 0.058242 -4.951967 3.546020 -15.170048 22.724370 9.648162 -10.902583 8.093426 -8.206114 -11.937209 1.957493 -62.015847 -43.011796 32.319359 155.112810 -75.218007 -128.197983 -4.848537 -16.407321 -17.042044 1.652106 3.629145 -8.329221 26.283911 20.637607 -11.446138 -113.749702 54.922882 -100.928815 8.788806 10.491345 -23.302912 
-0.190795 -15.041307 89.951050 -115.316569 5.343236 85.518611 22.316936 7.622402 -1.338521 -7.219874 -0.326682 26.466346 -0.162691 9.440989 -27.467120 nan nan nan -18.094824 -11.813730 -10.308848 2.655077 -10.889429 12.639173 6.566101 -5.187266 4.753070 nan nan nan -7.650616 1.344965 1.229706 5.337808 -6.396492 14.365576 0.062341 -0.193529 -5.001559 3.218199 -15.305148 22.323076 9.548962 -11.376210 8.259011 -8.619129 -12.434115 2.217296 -62.349116 -43.872543 32.423408 153.391757 -74.922912 -126.607378 -4.655806 -16.324518 -16.666340 2.840063 4.105287 -8.080636 26.700221 20.674160 -11.032148 -115.703180 55.096807 -101.486881 9.068766 10.146358 -21.268533 
-0.127933 -14.593034 90.020378 -115.097141 5.219925 85.657627 22.436386 7.537235 -1.190542 -7.176195 -0.492841 25.863818 -0.307918 9.399992 -26.806236 nan nan nan -18.114501 -11.740166 -10.227035 2.697368 -11.061780 12.695795 6.691967 -4.986290 4.376624 nan nan nan -8.037782 1.782297 0.903511 5.850070 -6.201981 14.354697 0.594013 -0.681124 -4.756529 2.612759 -15.811262 22.024160 9.389448 -11.679258 8.300570 -9.275116 -13.504180 2.752639 -62.441386 -44.765106 32.186177 151.053725 -74.447661 -124.728029 -5.055596 -16.229209 -16.085929 3.868924 4.556786 -8.001448 26.891629 20.237231 -10.998828 -117.698886 55.401252 -102.191280 9.717261 9.813301 -18.930656 
-0.071473 -14.108114 90.060043 -114.829045 4.995751 85.738479 22.477081 7.454775 -0.975519 -7.015005 -0.529156 25.219481 -0.383687 9.139084 -26.199075 nan nan nan -18.241527 -11.803437 -9.988938 2.814700 -11.207973 12.570140 6.822654 -4.735074 3.915661 nan nan nan -8.042624 1.439716 1.498517 5.898114 -6.528419 14.198742 0.473104 -0.447778 -5.649403 2.282452 -15.869216 21.717376 9.054813 -11.965672 9.022856 -9.253634 -13.152725 3.097093 -63.282646 -45.473218 32.891521 149.693515 -73.920098 -123.305917 -5.115870 -16.162917 -16.327728 5.177538 4.508140 -7.276842 27.799824 20.866029 -10.035502 -119.097126 55.443077 -101.831492 9.843413 9.602895 -16.756463 
-0.018064 -13.610113 90.089188 -114.575611 4.852910 85.800169 22.631047 7.375508 -0.738696 -6.945424 -0.662478 24.558885 -0.502130 9.004902 -25.589755 nan nan nan -18.236941 -11.868524 -9.698801 2.943948 -11.391162 12.378866 6.914181 -4.629245 3.337788 nan nan nan -8.139378 1.351729 1.537209 6.069658 -6.762211 14.486624 0.538376 -0.441869 -6.052881 2.045716 -15.926079 21.155167 8.954395 -12.385947 9.529031 -9.376041 -13.277480 3.262791 -63.783420 -46.054955 33.285804 148.538535 -73.570645 -121.907697 -4.510761 -16.122616 -16.013703 6.422492 4.640155 -7.110050 28.480046 20.982221 -9.210488 -120.290611 55.678556 -101.746407 9.621330 9.565217 -14.783970 
0.048850 -13.110771 90.119720 -114.360434 4.735336 85.871026 22.794535 7.347900 -0.510283 -6.828399 -0.755416 23.917762 -0.655778 8.880781 -25.011120 nan nan nan -18.171345 -11.909464 -9.477870 3.045895 -11.621412 12.276498 6.971463 -4.598272 2.731494 nan nan nan -8.276336 1.319872 1.646097 6.314229 -6.901271 14.507331 0.698795 -0.487437 -6.254664 1.829818 -16.012514 20.650000 8.854965 -12.826840 9.864028 -9.567365 -13.299737 3.413892 -64.410280 -46.644733 33.701421 147.626563 -73.307717 -120.877752 -4.118526 -16.259817 -15.342850 7.596149 4.683245 -6.897992 29.117206 21.091201 -8.505272 -121.340912 55.958011 -101.852488 9.509373 9.538509 -13.202805 
0.120570 -12.618965 90.139854 -114.157567 4.605900 85.984577 22.937133 7.361388 -0.383684 -6.713615 -0.783354 23.413624 -0.817464 8.742680 -24.437897 nan nan nan -18.078368 -11.950313 -9.332075 3.131266 -11.867754 12.224514 6.953601 -4.657676 2.113135 nan nan nan -8.415338 1.298415 1.858436 6.611243 -6.967199 14.111250 0.913939 -0.539108 -6.282526 1.460059 -16.211936 20.202083 8.622444 -13.261423 10.205280 -9.880554 -13.252268 3.618937 -65.073524 -47.194934 34.066730 147.062643 -72.966715 -120.423507 -4.029447 -16.191682 -14.866574 8.694485 4.697071 -6.424588 29.541146 21.170228 -8.097533 -122.305737 56.210198 -102.162744 9.524010 9.197950 -11.863882 
0.197646 -12.117779 90.164879 -113.936646 4.475996 86.166137 23.079670 7.404193 -0.396370 -6.627606 -0.817038 23.039722 -1.012735 8.579136 -23.843789 nan nan nan -17.928650 -12.135383 -9.294168 3.191867 -12.212185 12.245412 6.786192 -4.654122 1.451254 nan nan nan -8.586084 1.368576 1.847136 6.937965 -7.002962 13.876645 1.202957 -0.674331 -6.286090 1.081789 -16.383628 19.817702 8.486780 -13.820639 10.386518 -10.345148 -13.353841 3.852302 -65.484376 -47.643784 34.208609 146.672247 -72.611523 -120.153677 -3.993279 -16.099305 -14.182872 9.768372 4.873881 -5.898570 29.669898 20.915801 -7.956687 -123.085858 56.415449 -102.364880 9.524502 9.002286 -10.470378 
0.289940 -11.591658 90.207291 -113.708265 4.343351 86.315612 23.252617 7.491608 -0.419723 -6.532572 -0.796527 22.753793 -1.262623 8.283900 -23.308957 nan nan nan -17.747884 -12.403601 -9.312656 3.182745 -12.629723 12.435429 6.619681 -4.592539 0.737409 nan nan nan -8.631898 1.219591 1.911144 7.059590 -7.197191 13.721090 1.272075 -0.524842 -6.363973 0.968551 -16.327952 19.373509 8.499863 -14.495970 10.675461 -10.653296 -13.300764 4.020104 -65.750439 -48.076435 34.385397 146.332283 -72.265388 -120.059686 -4.078387 -16.236284 -13.416159 11.072323 5.100911 -5.228082 29.815398 20.668270 -7.841715 -123.627050 56.531552 -102.367101 9.466505 8.939337 -9.087040 
0.384411 -11.047676 90.264519 -113.510939 4.236060 86.409062 23.464689 7.612017 -0.374847 -6.462766 -0.800666 22.447772 -1.493667 8.073859 -22.766215 nan nan nan -17.549384 -12.632954 -9.255055 3.190040 -13.121575 12.530691 6.452380 -4.590626 -0.077125 nan nan nan -8.726948 1.162264 2.088150 7.251142 -7.314776 13.557447 1.387721 -0.368443 -6.494288 0.918371 -16.467733 18.811383 8.392229 -15.070407 11.107049 -10.907264 -13.205030 4.224998 -66.136822 -48.566833 34.660967 146.045596 -72.004073 -120.085934 -4.229851 -16.362630 -12.712145 12.456251 5.119075 -4.776155 29.811629 20.360988 -7.750266 -124.112944 56.740129 -102.823971 9.729173 8.878894 -7.792402 
0.486933 -10.509326 90.317329 -113.320092 4.151937 86.477057 23.729605 7.760559 -0.337676 -6.455060 -0.789663 22.195783 -1.676545 7.912562 -22.223282 nan nan nan -17.362202 -12.980043 -9.199501 3.242908 -13.708858 12.618185 6.220247 -4.637413 -0.828743 nan nan nan -8.830921 1.167942 2.361260 7.541936 -7.374604 13.197194 1.572025 -0.293996 -6.507142 0.799481 -16.651266 18.185390 8.123395 -15.508514 11.601323 -11.144946 -12.985400 4.442296 -66.676964 -48.988622 34.901543 146.449719 -71.843495 -120.445008 -4.050124 -16.180293 -12.389077 13.606953 5.004751 -4.484702 29.915836 20.064840 -7.675877 -124.421981 57.120790 -103.456758 10.033059 8.873128 -6.841414 
0.581004 -9.983677 90.361671 -113.160068 4.069590 86.503766 23.998199 7.908501 -0.262922 -6.403369 -0.677714 22.010453 -1.912124 7.710277 -21.695455 nan nan nan -17.194747 -13.300726 -9.114261 3.289864 -14.288768 12.750214 5.887131 -4.547688 -1.442409 nan nan nan -8.862843 1.187034 2.523758 7.799082 -7.394104 13.054455 1.764961 -0.410175 -6.603117 0.699028 -16.554456 17.721683 7.778118 -16.204185 11.988431 -11.503628 -12.763034 4.681824 -66.770355 -49.529534 34.826377 146.148667 -71.756646 -120.821185 -4.431356 -16.749497 -11.273369 14.545346 5.051259 -3.957606 30.213895 19.915751 -7.628410 -124.183874 57.305896 -103.467650 10.187719 8.992623 -6.043515 
0.687541 -9.450324 90.405220 -113.067126 3.948771 86.502143 24.231233 8.082330 -0.178955 -6.335895 -0.492325 21.913023 -2.177942 7.522390 -21.170207 nan nan nan -17.031260 -13.448117 -8.985570 3.277525 -14.795280 12.818855 5.527791 -4.463758 -1.915652 nan nan nan -8.942997 1.229735 2.595938 8.015660 -7.392322 13.326007 1.938289 -0.573493 -6.949756 0.809776 -16.395064 17.315788 7.390247 -16.976193 12.166807 -11.817833 -12.396616 4.642079 -67.023003 -49.781635 35.087471 145.908996 -71.533214 -120.676047 -4.584723 -17.027107 -10.167816 15.471847 5.168417 -3.507228 30.669515 19.799759 -7.120019 -123.318535 57.139059 -102.479323 10.116568 9.095283 -5.674191 
0.830237 -8.934592 90.443779 -112.921633 3.814865 86.583638 24.417899 8.214080 -0.373474 -6.295245 -0.196579 22.072239 -2.369321 7.316252 -20.600461 nan nan nan -16.904786 -13.560254 -8.951476 3.345155 -15.310232 12.870217 5.212414 -4.437565 -2.302099 nan nan nan -9.040196 1.258016 2.654173 8.220478 -7.456747 13.746195 2.072499 -0.601909 -7.507592 0.918689 -16.396222 16.859772 7.068941 -17.652352 12.413271 -12.124793 -12.095786 4.684106 -67.237120 -49.973057 35.389917 145.911494 -71.256219 -120.616508 -4.636819 -17.069665 -9.346511 16.430917 5.201647 -3.127935 30.980833 19.548213 -6.669103 -122.353614 56.984561 -101.648301 10.139969 9.225023 -5.242900 
0.971328 -8.443834 90.480225 -112.754781 3.680765 86.715464 24.575179 8.306512 -0.737742 -6.333990 0.061147 22.409039 -2.450835 7.259624 -20.078611 nan nan nan -16.802180 -13.631581 -8.937156 3.490553 -15.605717 12.820486 4.969745 -4.444196 -2.599175 nan nan nan -9.103479 1.241651 2.703484 8.400997 -7.584942 13.893931 2.138124 -0.510834 -7.828547 0.992861 -16.496852 16.403493 6.727571 -18.089544 12.903488 -12.409920 -11.869020 4.967732 -67.206551 -50.289743 35.414120 146.247886 -71.070740 -121.198834 -4.451161 -17.125933 -9.058303 17.322023 5.105244 -2.630249 31.211036 19.379965 -6.578629 -121.465250 57.014498 -101.014850 9.829875 9.114508 -4.587368 
1.104568 -7.960973 90.527672 -112.585888 3.513130 86.841187 24.644567 8.406004 -1.114242 -6.300912 0.330977 22.770363 -2.558334 7.286959 -19.539297 nan nan nan -16.735896 -13.724535 -8.913307 3.603228 -15.726002 12.771118 4.833010 -4.405579 -2.885470 nan nan nan -9.132716 1.227177 2.794672 8.536180 -7.701266 13.882405 2.208443 -0.557218 -8.054709 1.007723 -16.454712 16.083192 6.352810 -18.445689 13.305203 -12.731456 -11.498673 5.204828 -67.012759 -50.501698 35.234718 147.027493 -70.901341 -121.977078 -4.240875 -17.218059 -8.801703 18.099332 5.066677 -1.993835 31.586414 19.372032 -6.485916 -120.425026 56.964269 -99.869915 9.333601 8.956980 -3.886715 
1.237507 -7.504986 90.580116 -112.409381 3.343388 86.939542 24.656104 8.508167 -1.530066 -6.102141 0.830525 23.235583 -2.652228 7.310346 -19.058976 nan nan nan -16.702514 -13.824385 -8.942854 3.683186 -15.709930 12.917261 4.758532 -4.304835 -3.268756 nan nan nan -9.116392 1.268197 2.873711 8.636130 -7.784456 13.971632 2.292377 -0.667200 -8.274608 1.114374 -16.356094 15.679664 6.020868 -18.924979 13.626476 -13.009896 -11.165145 5.328084 -66.778133 -50.631448 34.886683 147.655622 -70.684392 -122.327690 -4.786710 -17.503730 -8.175623 18.824499 5.077374 -1.526167 31.993282 19.328952 -6.413024 -119.132475 56.821574 -98.293957 9.484788 9.015880 -2.948906 
1.379996 -7.068039 90.630241 -112.280050 3.204952 86.984112 24.703100 8.637806 -1.973018 -5.892896 1.424991 23.901610 -2.606859 7.387262 -18.695505 nan nan nan -16.629770 -13.830636 -8.977253 3.724470 -15.543292 13.135186 4.607434 -4.282168 -3.717807 nan nan nan -9.154361 1.295051 3.056583 8.763816 -7.854950 13.931286 2.390764 -0.580127 -8.306135 1.352707 -16.472439 15.109406 5.725901 -19.361808 14.035457 -13.148017 -10.987700 5.532858 -66.487734 -50.865565 34.468342 148.082181 -70.479387 -122.721467 -5.120794 -17.810909 -7.672325 19.497154 4.977606 -1.254651 32.253738 19.216441 -6.428979 -117.784972 56.690044 -96.832325 9.734238 9.057479 -2.549980 
